<?xml version="1.0" encoding="UTF-8" standalone="no"?>
<!DOCTYPE svg PUBLIC "-//W3C//DTD SVG 1.1//EN" "http://www.w3.org/Graphics/SVG/1.1/DTD/svg11.dtd">
<svg width="100%" height="100%" viewBox="0 0 800 800" version="1.1" xmlns="http://www.w3.org/2000/svg" xmlns:xlink="http://www.w3.org/1999/xlink" xml:space="preserve" xmlns:serif="http://www.serif.com/" style="fill-rule:evenodd;clip-rule:evenodd;stroke-linejoin:round;stroke-miterlimit:1.41421;">
    <g transform="matrix(1,0,0,1,-17.7986,-13.0619)">
        <path d="M417.799,250.273C614.706,250.273 774.57,323.216 774.57,413.062C774.57,502.907 614.706,575.851 417.799,575.851C220.891,575.851 61.027,502.907 61.027,413.062C61.027,323.216 220.891,250.273 417.799,250.273ZM417.799,258.135C605.197,258.135 757.34,327.555 757.34,413.062C757.34,498.568 605.197,567.989 417.799,567.989C230.4,567.989 78.257,498.568 78.257,413.062C78.257,327.555 230.4,258.135 417.799,258.135Z" style="fill:rgb(82,116,179);"/>
    </g>
    <g transform="matrix(0.707353,-0.706861,0.706861,0.707353,-187.508,403.145)">
        <path d="M417.799,250.273C614.706,250.273 774.57,323.216 774.57,413.062C774.57,502.907 614.706,575.851 417.799,575.851C220.891,575.851 61.027,502.907 61.027,413.062C61.027,323.216 220.891,250.273 417.799,250.273ZM417.799,258.135C605.197,258.135 757.34,327.555 757.34,413.062C757.34,498.568 605.197,567.989 417.799,567.989C230.4,567.989 78.257,498.568 78.257,413.062C78.257,327.555 230.4,258.135 417.799,258.135Z" style="fill:rgb(82,116,179);"/>
    </g>
    <g transform="matrix(0.707106,0.707107,-0.707107,0.707106,396.651,-187.507)">
        <path d="M417.799,250.273C614.706,250.273 774.57,323.216 774.57,413.062C774.57,502.907 614.706,575.851 417.799,575.851C220.891,575.851 61.027,502.907 61.027,413.062C61.027,323.216 220.891,250.273 417.799,250.273ZM417.799,258.135C605.197,258.135 757.34,327.555 757.34,413.062C757.34,498.568 605.197,567.989 417.799,567.989C230.4,567.989 78.257,498.568 78.257,413.062C78.257,327.555 230.4,258.135 417.799,258.135Z" style="fill:rgb(82,116,179);"/>
    </g>
    <path d="M400,471.459L400,543.024L312.197,419.243L400,471.459Z" style="fill:rgb(122,147,194);"/>
    <g transform="matrix(-1,0,0,1,800,0)">
        <path d="M400,471.459L400,543.024L312.197,419.243L400,471.459Z" style="fill:rgb(48,68,105);"/>
    </g>
    <g transform="matrix(1.17773e-16,-1.92337,1.8658,1.14247e-16,-418.643,1119.76)">
        <path d="M372.897,391.704L393.538,438.763L345.912,438.763L372.897,391.704Z" style="fill:rgb(46,65,100);"/>
    </g>
    <g transform="matrix(1.17773e-16,-1.92337,-1.8658,-1.14247e-16,1218.64,1119.76)">
        <path d="M372.897,391.704L393.538,438.763L345.912,438.763L372.897,391.704Z" style="fill:rgb(16,23,36);"/>
    </g>
    <g transform="matrix(1.00637,1.63908,1.59002,-0.976243,-598.087,134.029)">
        <path d="M372.897,391.704L414.395,420.66L325.992,421.391L372.897,391.704Z" style="fill:rgb(43,60,93);"/>
    </g>
    <g transform="matrix(-1.00637,1.63908,-1.59002,-0.976243,1398.09,134.029)">
        <path d="M372.897,391.704L414.395,420.66L325.992,421.391L372.897,391.704Z" style="fill:rgb(122,147,194);"/>
    </g>
</svg>
